# xmcd CD database file
#
# Track frame offsets:
#	150
#	13890
#	23665
#	32100
#	45460
#	57677
#	65827
#	78150
#	91925
#	101395
#	114990
#	123907
#	134920
#	147112
#	161680
#	175852
#
# Disc length: 2496 seconds
#
# Revision: 4
# Processed by: cddbd v1.5.2PL0 Copyright (c) Steve Scherf et al.
# Submitted via: CDex 1.51
#
DISCID=d809be10
DTITLE=Willie Nelson - Favourite Hits
DYEAR=2001
DGENRE=Country
TTITLE0=The Last Letter
TTITLE1=Half A Man
TTITLE2=You Wouldn´t Cross The Street To Say Goodbye
TTITLE3=I Just Don´t Understand
TTITLE4=Following Me Around
TTITLE5=Things To Remember
TTITLE6=I Hope So
TTITLE7=Everything But You
TTITLE8=One Step Beyond
TTITLE9=Undo The Wrong
TTITLE10=Why Are You Picking On Me ¿
TTITLE11=Blame It On The Time
TTITLE12=End Of Understanding
TTITLE13=Will You Remember Me
TTITLE14=So Much To Do
TTITLE15=Suffering In Silence
EXTD=YEAR: 2001
EXTT0=
EXTT1=
EXTT2=
EXTT3=
EXTT4=
EXTT5=
EXTT6=
EXTT7=
EXTT8=
EXTT9=
EXTT10=
EXTT11=
EXTT12=
EXTT13=
EXTT14=
EXTT15=
PLAYORDER=
